<?xml version="1.0" encoding="utf-8"?>
<!-- Generator: Adobe Illustrator 16.0.0, SVG Export Plug-In . SVG Version: 6.00 Build 0)  -->
<!DOCTYPE svg PUBLIC "-//W3C//DTD SVG 1.1//EN" "http://www.w3.org/Graphics/SVG/1.1/DTD/svg11.dtd">
<svg version="1.1" id="Layer_1" xmlns="http://www.w3.org/2000/svg" xmlns:xlink="http://www.w3.org/1999/xlink" x="0px" y="0px"
	 width="720px" height="720px" viewBox="0 0 720 720" enable-background="new 0 0 720 720" xml:space="preserve">
<g id="XMLID_1135_">
	<polygon id="XMLID_1136_" fill="#FFD600" points="313.047,328.696 360.003,720 673.047,540 673.047,180 	"/>
	<polygon id="XMLID_1137_" fill="#FFEB3B" points="360.002,313.043 360.002,720 46.958,540 46.958,180 	"/>
	<polygon id="XMLID_1138_" fill="#FBC02D" points="46.954,180 156.386,242.92 363.714,182.003 469.42,62.911 359.997,0 	"/>
	<polygon id="XMLID_1139_" fill="#FBC02D" points="250.585,297.084 359.997,360 673.04,180 563.632,117.075 354.768,178.872 	"/>
	<polygon id="XMLID_1140_" fill="#FFFFFF" points="250.585,453.604 156.386,399.442 156.386,242.92 247.186,250.012 
		250.585,297.084 	"/>
	<polygon id="XMLID_1141_" fill="#FFF9C4" points="156.386,242.92 469.42,62.911 563.632,117.075 250.585,297.084 	"/>
</g>
<g>
	<g>
		<path fill="#FF5252" d="M567.179,298.032c-84.266,0-152.821,68.554-152.821,152.82c0,104.576,136.76,258.1,142.583,264.584
			c5.469,6.09,15.017,6.082,20.478,0C583.24,708.951,720,555.428,720,450.852C720,366.586,651.446,298.032,567.179,298.032z
			 M567.179,527.738c-42.395,0-76.888-34.488-76.888-76.887c0-42.396,34.493-76.887,76.888-76.887
			c42.396,0,76.888,34.49,76.888,76.887C644.066,493.25,609.575,527.738,567.179,527.738z"/>
	</g>
</g>
</svg>
